#!OML:ASF H:\Punching\Project 1\Capture day 1\Session 1\female.ASF
:FULLY-SPECIFIED
:DEGREES
79
root -0.319817 14.9032 -1.76259 9.09668 0.073506 0.190868
lowerback 2.66014 -1.73304 -0.927548
upperback -6.19025 -2.39867 -0.0196761
thorax -7.93114 -1.12617 0.725489
lowerneck -15.0593 -3.73221 1.39031
upperneck 35.1685 -5.11723 -2.84568
head 14.4939 -2.44599 -2.26473
rclavicle -2.73702e-014 -5.86415e-015
rhumerus 33.8501 10.1955 -62.4976
rradius 65.0041
rwrist -1.90833
rhand 33.9341 -37.652
rfingers 7.12502
rthumb 57.2049 -54.066
lclavicle -2.73702e-014 -5.86415e-015
lhumerus 27.4159 -7.2099 57.0088
lradius 79.2989
lwrist -9.59732
lhand 36.6016 27.0736
lfingers 7.12502
lthumb 59.5234 41.3446
rfemur -28.5448 -6.80804 16.9094
rtibia 52.1407
rfoot -28.867 -8.76058
rtoes -12.0678
lfemur -28.9181 1.43263 -16.7624
ltibia 50.4639
lfoot -25.2296 8.25604
ltoes -14.041
80
root -0.319606 14.9051 -1.76282 9.08772 0.0496324 0.168879
lowerback 2.66459 -1.70276 -0.918446
upperback -6.17848 -2.35736 -0.0218881
thorax -7.9221 -1.10655 0.71413
lowerneck -15.0784 -3.50476 1.69303
upperneck 35.3675 -4.82854 -2.97128
head 14.5845 -2.29468 -2.3303
rclavicle 7.08792e-015 4.37326e-015
rhumerus 33.8132 10.1605 -62.5208
rradius 64.9885
rwrist -1.93123
rhand 34.0871 -37.7192
rfingers 7.12502
rthumb 57.3391 -54.0191
lclavicle 7.08792e-015 4.37326e-015
lhumerus 27.4202 -7.2754 57.0298
lradius 79.3101
lwrist -9.55237
lhand 36.5767 27.069
lfingers 7.12502
lthumb 59.502 41.3618
rfemur -28.5223 -6.73972 16.9286
rtibia 52.0978
rfoot -28.8341 -8.79988
rtoes -12.1065
lfemur -28.8877 1.4364 -16.739
ltibia 50.4309
lfoot -25.2366 8.26713
ltoes -14.0176
81
root -0.318863 14.9055 -1.76324 9.08528 0.0504781 0.15623
lowerback 2.68777 -1.67433 -0.896268
upperback -6.18469 -2.31869 -0.0326174
thorax -7.94433 -1.08899 0.687826
lowerneck -15.0722 -3.31094 1.92051
upperneck 35.5567 -4.59053 -3.02851
head 14.6703 -2.16575 -2.36207
rclavicle -3.58371e-014 -5.36719e-015
rhumerus 33.7253 10.1408 -62.5121
rradius 64.9976
rwrist -2.01327
rhand 33.9855 -37.7488
rfingers 7.12502
rthumb 57.2499 -54.1247
lclavicle -3.58371e-014 -5.36719e-015
lhumerus 27.367 -7.3658 57.0549
lradius 79.304
lwrist -9.52041
lhand 36.4693 26.9581
lfingers 7.12502
lthumb 59.4096 41.3436
rfemur -28.5016 -6.71559 16.937
rtibia 52.0629
rfoot -28.8178 -8.81992
rtoes -12.1058
lfemur -28.8735 1.42107 -16.7285
ltibia 50.4108
lfoot -25.2371 8.29525
ltoes -14.028
82
root -0.318427 14.9061 -1.76427 9.08905 0.0423247 0.147452
lowerback 2.68106 -1.64226 -0.887623
upperback -6.1621 -2.27516 -0.0412352
thorax -7.91728 -1.06867 0.669177
lowerneck -15.1288 -3.11979 2.16992
upperneck 35.7321 -4.35457 -3.11146
head 14.7639 -2.03805 -2.41008
rclavicle -2.44195e-014 -2.98177e-015
rhumerus 33.6961 10.0776 -62.4971
rradius 64.981
rwrist -2.00563
rhand 34.0751 -37.6606
rfingers 7.12502
rthumb 57.3286 -53.9696
lclavicle -2.44195e-014 -2.98177e-015
lhumerus 27.4034 -7.43606 57.055
lradius 79.3165
lwrist -9.50067
lhand 36.4895 26.9611
lfingers 7.12502
lthumb 59.427 41.3292
rfemur -28.4914 -6.68391 16.9386
rtibia 52.0223
rfoot -28.8132 -8.8065
rtoes -12.0218
lfemur -28.8732 1.40892 -16.7179
ltibia 50.3942
lfoot -25.2304 8.2951
ltoes -13.9393
83
root -0.317291 14.9058 -1.7645 9.08874 0.0392094 0.118199
lowerback 2.69306 -1.61449 -0.851484
upperback -6.16804 -2.23545 -0.0398883
thorax -7.93262 -1.05111 0.647215
lowerneck -15.1079 -2.93083 2.4013
upperneck 35.8983 -4.11208 -3.19923
head 14.8375 -1.91133 -2.45326
rclavicle 5.62188e-015 -4.96962e-015
rhumerus 33.619 10.0745 -62.4651
rradius 64.9767
rwrist -2.05596
rhand 34.1194 -37.696
rfingers 7.12502
rthumb 57.3674 -53.9718
lclavicle 5.62188e-015 -4.96962e-015
lhumerus 27.3948 -7.51396 57.0638
lradius 79.3385
lwrist -9.48585
lhand 36.6299 26.9802
lfingers 7.12502
lthumb 59.5477 41.2267
rfemur -28.4714 -6.6725 16.9616
rtibia 51.9844
rfoot -28.8031 -8.8003
rtoes -12.063
lfemur -28.8672 1.40389 -16.6903
ltibia 50.3874
lfoot -25.2359 8.31348
ltoes -13.9524
84
root -0.31666 14.9075 -1.76457 9.08759 0.00512338 0.100155
lowerback 2.69124 -1.58221 -0.835158
upperback -6.15549 -2.19104 -0.0441837
thorax -7.91936 -1.03053 0.629111
lowerneck -15.178 -2.7586 2.61026
upperneck 36.0894 -3.89889 -3.2647
head 14.9458 -1.79605 -2.49199
rclavicle -2.16675e-014 -1.45113e-014
rhumerus 33.5788 10.0923 -62.4098
rradius 64.9811
rwrist -2.20209
rhand 33.9535 -37.7872
rfingers 7.12502
rthumb 57.2219 -54.1868
lclavicle -2.16675e-014 -1.45113e-014
lhumerus 27.4503 -7.59444 57.0047
lradius 79.3924
lwrist -9.42418
lhand 36.6753 27.0091
lfingers 7.12502
lthumb 59.5868 41.216
rfemur -28.4579 -6.6126 16.9688
rtibia 51.94
rfoot -28.7947 -8.78437
rtoes -12.0368
lfemur -28.8558 1.42643 -16.6747
ltibia 50.3783
lfoot -25.2423 8.31649
ltoes -13.9045
85
root -0.315047 14.9084 -1.76564 9.10265 0.0164735 0.0814987
lowerback 2.67604 -1.56056 -0.781288
upperback -6.14156 -2.1593 -0.0639765
thorax -7.89855 -1.01912 0.574551
lowerneck -15.276 -2.59106 2.84247
upperneck 36.2872 -3.6991 -3.33578
head 15.0642 -1.68373 -2.54043
rclavicle 1.80521e-014 1.35174e-014
rhumerus 33.5375 10.0523 -62.3995
rradius 64.9841
rwrist -2.22387
rhand 34.0732 -37.6972
rfingers 7.12502
rthumb 57.3269 -54.0076
lclavicle 1.80521e-014 1.35174e-014
lhumerus 27.4948 -7.67166 56.9573
lradius 79.4161
lwrist -9.34798
lhand 36.6818 27.0638
lfingers 7.12502
lthumb 59.5924 41.265
rfemur -28.4467 -6.60163 16.9784
rtibia 51.8941
rfoot -28.7789 -8.76948
rtoes -12.0556
lfemur -28.8705 1.41249 -16.6587
ltibia 50.3729
lfoot -25.2389 8.31486
ltoes -13.8651
86
root -0.313858 14.909 -1.76692 9.08934 0.0226238 0.0575245
lowerback 2.72083 -1.53777 -0.753192
upperback -6.14929 -2.12696 -0.0591883
thorax -7.93438 -1.00437 0.562411
lowerneck -15.2774 -2.43307 3.00357
upperneck 36.4424 -3.50292 -3.36364
head 15.1439 -1.57786 -2.55435
rclavicle 1.74185e-014 -4.96962e-015
rhumerus 33.4571 10.0595 -62.3482
rradius 65.0071
rwrist -2.28164
rhand 34.0875 -37.7661
rfingers 7.12502
rthumb 57.3394 -54.0658
lclavicle 1.74185e-014 -4.96962e-015
lhumerus 27.4599 -7.74398 56.9693
lradius 79.4436
lwrist -9.32361
lhand 36.6822 27.0079
lfingers 7.12502
lthumb 59.5926 41.2089
rfemur -28.4151 -6.60448 16.9966
rtibia 51.8518
rfoot -28.7699 -8.76076
rtoes -12.1326
lfemur -28.8563 1.39956 -16.6321
ltibia 50.3612
lfoot -25.238 8.30885
ltoes -13.8279
87
root -0.311972 14.9105 -1.76729 9.08917 0.0333132 0.0451552
lowerback 2.6986 -1.52596 -0.716365
upperback -6.12544 -2.10845 -0.0648727
thorax -7.89728 -0.998068 0.53299
lowerneck -15.2962 -2.26846 3.17212
upperneck 36.5696 -3.29896 -3.39173
head 15.2153 -1.46818 -2.5677
rclavicle -2.86312e-014 -1.21259e-014
rhumerus 33.4471 10.061 -62.3124
rradius 65.0203
rwrist -2.33311
rhand 34.0768 -37.7209
rfingers 7.12502
rthumb 57.3301 -54.0285
lclavicle -2.86312e-014 -1.21259e-014
lhumerus 27.4951 -7.78271 56.9265
lradius 79.4725
lwrist -9.25661
lhand 36.6592 26.9203
lfingers 7.12502
lthumb 59.5729 41.1413
rfemur -28.3872 -6.63275 16.9996
rtibia 51.8098
rfoot -28.7743 -8.70959
rtoes -12.0878
lfemur -28.8539 1.39743 -16.6263
ltibia 50.3506
lfoot -25.2254 8.30948
ltoes -13.8999
88
root -0.310472 14.9114 -1.76765 9.0967 0.0426776 0.0539941
lowerback 2.70512 -1.50861 -0.710173
upperback -6.12946 -2.08532 -0.0728537
thorax -7.90623 -0.987239 0.519266
lowerneck -15.2735 -2.11199 3.31072
upperneck 36.676 -3.10948 -3.38269
head 15.2688 -1.36405 -2.56044
rclavicle 6.62201e-015 8.54774e-015
rhumerus 33.4015 10.0443 -62.3025
rradius 65.0303
rwrist -2.32249
rhand 34.0781 -37.7108
rfingers 7.12502
rthumb 57.3312 -54.0175
lclavicle 6.62201e-015 8.54774e-015
lhumerus 27.4842 -7.84535 56.9122
lradius 79.4993
lwrist -9.2124
lhand 36.8004 26.9512
lfingers 7.12502
lthumb 59.6941 41.0487
rfemur -28.3844 -6.66561 16.9844
rtibia 51.7832
rfoot -28.7664 -8.69555
rtoes -12.2077
lfemur -28.8561 1.38855 -16.6431
ltibia 50.3378
lfoot -25.2338 8.30729
ltoes -13.8812
